<?xml version="1.0" encoding="UTF-8" standalone="no"?>
<!-- Created with Inkscape (http://www.inkscape.org/) -->

<svg
   xmlns:dc="http://purl.org/dc/elements/1.1/"
   xmlns:cc="http://creativecommons.org/ns#"
   xmlns:rdf="http://www.w3.org/1999/02/22-rdf-syntax-ns#"
   xmlns:svg="http://www.w3.org/2000/svg"
   xmlns="http://www.w3.org/2000/svg"
   xmlns:sodipodi="http://sodipodi.sourceforge.net/DTD/sodipodi-0.dtd"
   xmlns:inkscape="http://www.inkscape.org/namespaces/inkscape"
   width="1280mm"
   height="720mm"
   viewBox="0 0 1280.0001 720.00008"
   version="1.1"
   id="svg76"
   inkscape:version="0.92.3 (2405546, 2018-03-11)"
   sodipodi:docname="drawing.svg">
  <defs
     id="defs70">
    <inkscape:perspective
       sodipodi:type="inkscape:persp3d"
       inkscape:vp_x="0 : 95.250013 : 1"
       inkscape:vp_y="0 : 1000 : 0"
       inkscape:vp_z="338.66668 : 95.250013 : 1"
       inkscape:persp3d-origin="169.33335 : 63.500009 : 1"
       id="perspective40" />
  </defs>
  <sodipodi:namedview
     id="base"
     pagecolor="#ffffff"
     bordercolor="#666666"
     borderopacity="1.0"
     inkscape:pageopacity="0.0"
     inkscape:pageshadow="2"
     inkscape:zoom="0.175"
     inkscape:cx="2754.9624"
     inkscape:cy="1119.1441"
     inkscape:document-units="mm"
     inkscape:current-layer="layer1"
     showgrid="false"
     inkscape:window-width="1920"
     inkscape:window-height="1001"
     inkscape:window-x="-9"
     inkscape:window-y="-9"
     inkscape:window-maximized="1"
     width="1280mm"
     units="mm" />
  <metadata
     id="metadata73">
    <rdf:RDF>
      <cc:Work
         rdf:about="">
        <dc:format>image/svg+xml</dc:format>
        <dc:type
           rdf:resource="http://purl.org/dc/dcmitype/StillImage" />
        <dc:title></dc:title>
      </cc:Work>
    </rdf:RDF>
  </metadata>
  <g
     inkscape:label="Layer 1"
     inkscape:groupmode="layer"
     id="layer1"
     transform="translate(0,423.00008)">
    <path
       style="fill:none;stroke:#000000;stroke-width:0.20136243px;stroke-linecap:butt;stroke-linejoin:miter;stroke-opacity:1"
       d="M -0.03634676,276.13399 49.99062,246.28113 l 8.515235,39.8038 38.850726,-16.79223 15.433849,10.88386 37.25413,-9.63999 12.24064,8.39613 13.30504,-6.84127 8.51523,5.28642 18.09485,-7.77418 19.15926,17.72514 19.69148,-9.63998 48.96257,8.08514 47.36594,-58.46183 27.67449,59.08376 43.64053,-20.52383 c 0,0 28.20672,5.28644 30.33551,5.28644 2.12879,0 35.6575,-25.18834 42.04395,-25.49933 6.38641,-0.31096 94.73191,18.03612 97.9251,18.03612 3.19322,0 23.9491,29.85285 43.64055,19.27997 19.69145,-10.57288 43.64056,-18.96901 42.04391,-25.49933 -1.59658,-6.53032 5.85427,-7.46318 11.70846,-3.73159 5.85423,3.73159 67.58962,22.7006 67.58962,22.7006 l 92.60309,-45.71217 c 0,0 68.12187,55.97409 71.84728,55.35215 3.72533,-0.62193 28.20669,-25.18833 30.33548,-25.18833 2.12883,0 22.88467,9.01803 22.88467,9.01803 l 31.93213,-14.30447 c 0,0 42.04386,17.72512 44.70496,17.72512 2.661,0 53.2201,-28.29801 55.8811,-27.98706 2.6611,0.31096 89.4099,26.43224 89.4099,26.43224 l 25.0135,-13.68258 64.9286,-36.69413 0.8649,-0.0971 v 76.10197 H -0.03634676 Z"
       id="path28"
       inkscape:connector-curvature="0" />
  </g>
</svg>
