<?xml version="1.0" encoding="UTF-8" standalone="no"?>
<!-- Created with Inkscape (http://www.inkscape.org/) -->

<svg
   xmlns:dc="http://purl.org/dc/elements/1.1/"
   xmlns:cc="http://creativecommons.org/ns#"
   xmlns:rdf="http://www.w3.org/1999/02/22-rdf-syntax-ns#"
   xmlns:svg="http://www.w3.org/2000/svg"
   xmlns="http://www.w3.org/2000/svg"
   xmlns:sodipodi="http://sodipodi.sourceforge.net/DTD/sodipodi-0.dtd"
   xmlns:inkscape="http://www.inkscape.org/namespaces/inkscape"
   width="800mm"
   height="600mm"
   viewBox="0 0 800 600"
   version="1.1"
   id="svg8"
   inkscape:version="0.92.3 (2405546, 2018-03-11)"
   sodipodi:docname="level2.svg">
  <defs
     id="defs2">
    <inkscape:path-effect
       effect="spiro"
       id="path-effect4110"
       is_visible="true" />
    <inkscape:path-effect
       effect="spiro"
       id="path-effect3984"
       is_visible="true" />
    <inkscape:path-effect
       effect="spiro"
       id="path-effect3902"
       is_visible="true" />
    <inkscape:path-effect
       effect="spiro"
       id="path-effect3886"
       is_visible="true" />
    <inkscape:path-effect
       effect="spiro"
       id="path-effect3882"
       is_visible="true" />
    <inkscape:path-effect
       effect="spiro"
       id="path-effect3878"
       is_visible="true" />
    <inkscape:path-effect
       effect="spiro"
       id="path-effect3874"
       is_visible="true" />
    <inkscape:path-effect
       effect="spiro"
       id="path-effect3870"
       is_visible="true" />
    <inkscape:path-effect
       effect="spiro"
       id="path-effect3862"
       is_visible="true" />
    <inkscape:perspective
       sodipodi:type="inkscape:persp3d"
       inkscape:vp_x="0 : 300 : 1"
       inkscape:vp_y="0 : 1000 : 0"
       inkscape:vp_z="800 : 300 : 1"
       inkscape:persp3d-origin="400 : 200 : 1"
       id="perspective3773" />
  </defs>
  <sodipodi:namedview
     id="base"
     pagecolor="#ffffff"
     bordercolor="#666666"
     borderopacity="1.0"
     inkscape:pageopacity="0.0"
     inkscape:pageshadow="2"
     inkscape:zoom="0.32"
     inkscape:cx="789.4451"
     inkscape:cy="1554.1443"
     inkscape:document-units="mm"
     inkscape:current-layer="layer2"
     showgrid="false"
     width="800mm"
     inkscape:window-width="1920"
     inkscape:window-height="1001"
     inkscape:window-x="-9"
     inkscape:window-y="-9"
     inkscape:window-maximized="1"
     inkscape:lockguides="false" />
  <metadata
     id="metadata5">
    <rdf:RDF>
      <cc:Work
         rdf:about="">
        <dc:format>image/svg+xml</dc:format>
        <dc:type
           rdf:resource="http://purl.org/dc/dcmitype/StillImage" />
        <dc:title></dc:title>
      </cc:Work>
    </rdf:RDF>
  </metadata>
  <g
     inkscape:groupmode="layer"
     id="layer2"
     inkscape:label="Layer 2"
     style="display:inline">
    <path
       style="display:inline;opacity:1;fill:#483737;stroke-width:2.20970869"
       d="m 2532.2051,1764.7012 c -2.8984,-2.2635 -7.7557,-4.8637 -10.7941,-5.7782 -3.0383,-0.9146 -7.711,-3.6631 -10.3837,-6.1079 -2.6726,-2.4447 -6.3396,-3.877 -8.1487,-3.1827 -2.2063,0.8466 -3.5166,-0.3346 -3.9794,-3.5874 -0.3796,-2.6674 -2.1817,-4.8497 -4.0047,-4.8497 -1.823,0 -4.4067,-1.3949 -5.7415,-3.0998 -1.3348,-1.7048 -3.5721,-2.3919 -4.9718,-1.5268 -1.3997,0.8651 -2.545,0.5198 -2.545,-0.7673 0,-1.287 -2.3754,-2.3401 -5.2787,-2.3401 -3.6712,0 -5.1853,-1.1777 -4.9719,-3.867 0.1689,-2.1268 -1.1846,-3.867 -3.0076,-3.867 -1.823,0 -4.1215,-1.2638 -5.1077,-2.8086 -0.9862,-1.5447 -2.6576,-2.2743 -3.7143,-1.6212 -1.0566,0.653 -2.5458,0.1768 -3.3091,-1.0584 -0.7634,-1.2352 -3.0788,-2.2458 -5.1454,-2.2458 -2.0667,0 -5.0606,-2.0865 -6.6532,-4.6367 -1.9231,-3.0794 -4.3736,-4.2503 -7.2959,-3.4861 -2.6058,0.6814 -4.8834,-0.1089 -5.5853,-1.9381 -1.2934,-3.3705 -12.9002,-9.8264 -17.6665,-9.8264 -1.6363,0 -2.975,-0.9944 -2.975,-2.2097 0,-1.2154 -1.9301,-2.2098 -4.289,-2.2098 -2.359,0 -4.9036,-0.9943 -5.6547,-2.2097 -0.7511,-1.2153 -6.6103,-2.2097 -13.0204,-2.2097 -6.4101,0 -12.216,-0.5613 -12.9021,-1.2474 -2.1063,-2.1063 -59.7322,-1.38 -61.1425,0.7706 -1.6024,2.4436 -3.1831,2.6973 -25.6302,4.1133 -9.7227,0.6133 -18.6223,2.0347 -19.7769,3.1587 -2.8568,2.7812 -90.7093,2.6297 -96.2628,-0.1662 -2.4142,-1.2153 -6.3646,-3.204 -8.7788,-4.4194 -2.4142,-1.2153 -8.2587,-2.2097 -12.9877,-2.2097 -4.9472,0 -9.7664,-1.4075 -11.3491,-3.3145 -1.513,-1.8231 -5.6122,-3.3146 -9.1094,-3.3146 -3.4972,0 -6.3663,-0.7458 -6.3758,-1.6573 -0.025,-2.4026 -11.1071,-7.1815 -16.6536,-7.1815 -2.6077,0 -6.5199,-1.9653 -8.6937,-4.3674 -2.1738,-2.402 -4.6632,-3.9279 -5.5321,-3.3909 -0.8688,0.537 -3.6775,-0.978 -6.2414,-3.3667 -2.5639,-2.3885 -6.226,-4.3429 -8.1379,-4.3429 -1.912,0 -4.0143,-1.4018 -4.6717,-3.1151 -0.6575,-1.7134 -3.6094,-3.721 -6.5598,-4.4615 -3.8761,-0.9729 -5.3644,-2.8674 -5.3644,-6.8286 0,-3.0152 -1.0419,-5.4822 -2.3152,-5.4822 -1.2734,0 -4.5051,-2.2512 -7.1816,-5.0027 -2.6765,-2.7515 -7.6008,-6.3998 -10.943,-8.1074 -3.3422,-1.7075 -6.0767,-3.931 -6.0767,-4.9409 0,-1.01 -15.4262,-1.8363 -34.2805,-1.8363 -18.91,0 -36.0009,-0.9942 -38.1175,-2.2174 -2.1103,-1.2195 -17.2609,-3.1647 -33.668,-4.3227 -33.955,-2.3964 -45.9178,-4.144 -47.6597,-6.9624 -1.9947,-3.2275 -138.1754,-2.4806 -145.2321,0.7966 -3.2711,1.5192 -5.9553,3.5079 -5.9648,4.4194 -0.01,0.9115 -1.7574,1.6634 -3.8842,1.6709 -2.1268,0.01 -6.7152,1.4991 -10.1963,3.3146 -7.4056,3.8623 -55.4782,4.7707 -57.7522,1.0912 -2.1504,-3.4794 -14.3423,-2.6254 -15.7738,1.1049 -0.6995,1.823 -2.6883,3.3146 -4.4194,3.3146 -1.7311,0 -3.7198,1.4915 -4.4194,3.3145 -0.6996,1.823 -2.1588,3.3146 -3.2427,3.3146 -4.0496,0 -19.6535,17.3386 -19.6535,21.8385 0,2.5729 -0.9944,4.678 -2.2097,4.678 -1.2153,0 -2.2095,3.7289 -2.2092,8.2864 l 5e-4,8.2864 -29.5462,-1.4668 c -22.767,-1.1303 -31.5131,-2.4568 -38.118,-5.7816 -4.7145,-2.3731 -22.4929,-9.5142 -39.5077,-15.869 -17.0147,-6.3549 -31.8805,-12.4539 -33.0351,-13.5534 -1.1546,-1.0995 -4.8532,-1.9991 -8.2192,-1.9991 -3.366,0 -9.6608,-1.9887 -13.9884,-4.4194 -4.3276,-2.4307 -10.7626,-4.4194 -14.2999,-4.4194 -3.5373,0 -7.0461,-0.9944 -7.7972,-2.2097 -0.8776,-1.4201 -36.8079,-2.2097 -100.5417,-2.2097 -55.8356,0 -99.7092,-0.8627 -100.396,-1.974 -0.671,-1.0856 -10.1831,-2.6833 -21.138,-3.5503 -10.9549,-0.8671 -20.467,-2.4647 -21.138,-3.5504 -0.6709,-1.0856 -3.5885,-1.9739 -6.4834,-1.9739 -2.8949,0 -5.878,-0.9944 -6.6291,-2.2097 -1.7848,-2.8879 -27.6213,-2.8879 -27.6213,0 0,1.2153 -4.9719,2.2097 -11.0486,2.2097 -6.169,0 -11.0485,1.014 -11.0485,2.2959 0,1.516 -14.0529,2.2031 -41.3698,2.0229 -26.6155,-0.1757 -41.6399,0.5375 -42.1272,1.9994 -0.4166,1.2498 -2.2519,1.6989 -4.0784,0.998 -1.8264,-0.7009 -5.5793,-0.066 -8.3397,1.4117 -3.5588,1.9047 -13.6398,2.3502 -34.65381,1.5316 -16.29925,-0.635 -31.82305,-1.2296 -34.49733,-1.3214 -2.67428,-0.092 -5.46748,-1.146 -6.20712,-2.3428 -0.7739,-1.2522 -13.86519,-2.1759 -30.83856,-2.1759 -28.40587,0 -29.45115,-0.1631 -28.33808,-4.4194 0.77778,-2.9742 0.0678,-4.4194 -2.17106,-4.4194 -1.8297,0 -3.18865,-1.6636 -3.01985,-3.6968 0.27115,-3.266 -2.30508,-3.6325 -22.10743,-3.1451 -14.20412,0.3497 -22.95297,-0.3197 -23.88479,-1.8274 -0.95888,-1.5515 -14.83278,-2.3793 -39.87952,-2.3793 -23.22247,0 -38.94905,-0.8737 -39.77475,-2.2097 -0.75113,-1.2153 -3.07475,-2.2097 -5.16361,-2.2097 -2.08883,0 -5.50072,-1.9887 -7.58193,-4.4194 -2.08121,-2.4307 -6.10634,-4.4194 -8.94474,-4.4194 -2.83839,0 -7.49612,-2.4859 -10.3505,-5.5243 -3.6736,-3.9103 -7.51603,-5.5242 -13.15235,-5.5242 -5.22808,0 -9.26206,-1.5177 -11.74658,-4.4195 -2.08122,-2.4306 -6.15793,-4.4194 -9.05936,-4.4194 -2.90143,0 -6.51321,-1.4915 -8.02617,-3.3145 -1.51297,-1.8231 -4.9609,-3.3146 -7.66207,-3.3146 -2.70118,0 -6.71101,-1.9887 -8.91075,-4.4194 -2.6579,-2.937 -6.80583,-4.4194 -12.36546,-4.4194 -4.60127,0 -9.0055,-1.0349 -9.78718,-2.2996 -0.78167,-1.2648 -3.2426,-1.7216 -5.46872,-1.015 -2.22612,0.7065 -4.68704,0.2498 -5.46872,-1.015 -0.85523,-1.3838 -11.85602,-2.2996 -27.62318,-2.2996 -14.41107,0 -26.5334,-0.7858 -26.93852,-1.7462 -0.40511,-0.9604 -6.45419,-4.4278 -13.44239,-7.7054 -6.98821,-3.2775 -12.70583,-6.7236 -12.70583,-7.658 0,-0.9344 -2.73451,-2.9231 -6.0767,-4.4193 -6.18422,-2.7686 -11.60097,-11.4937 -11.60097,-18.6864 0,-2.1883 -0.99437,-3.9788 -2.20971,-3.9788 -1.43147,0 -2.2097,-27.5142 -2.2097,-78.123 v -78.1229 l 15.27989,-13.58 c 8.40395,-7.469 16.88729,-13.58 18.85188,-13.58 1.96459,0 4.14434,-1.4915 4.84389,-3.3145 0.71535,-1.8642 4.00411,-3.3146 7.51573,-3.3146 4.3031,0 6.67978,-1.3736 7.64647,-4.4194 0.86941,-2.7393 3.34336,-4.4194 6.50747,-4.4194 2.80763,0 6.34267,-1.4916 7.85564,-3.3146 1.51296,-1.823 4.60939,-3.3146 6.88096,-3.3146 2.27157,0 5.37212,-1.9887 6.8901,-4.4194 1.51799,-2.4307 4.07154,-4.4194 5.67457,-4.4194 4.03478,0 22.59043,-15.8065 21.19887,-18.0581 -0.62181,-1.0061 0.41967,-1.8293 2.3144,-1.8293 1.89474,0 3.44498,-1.3756 3.44498,-3.0568 0,-1.6813 1.84788,-3.5401 4.1064,-4.1307 2.25852,-0.5906 5.48436,-4.1869 7.16854,-7.9917 1.68418,-3.8048 4.25474,-6.9179 5.71236,-6.9179 1.45762,0 4.41238,-2.9831 6.56614,-6.6291 2.15376,-3.646 4.6959,-6.6291 5.6492,-6.6291 0.9533,0 1.73328,-2.9244 1.73328,-6.4987 0,-3.5743 1.03482,-7.1383 2.29959,-7.92 1.26478,-0.7816 1.69496,-3.3262 0.95595,-5.6546 -0.95878,-3.0209 -0.28389,-4.2335 2.35624,-4.2335 2.38094,0 3.24647,-1.1816 2.42797,-3.3146 -0.70385,-1.8341 -0.0634,-3.3145 1.43387,-3.3145 1.48819,0 4.00234,-2.9291 5.58701,-6.5091 1.91885,-4.335 3.98821,-6.0843 6.1955,-5.2373 2.14917,0.8247 3.74698,-0.3827 4.54506,-3.4346 0.73824,-2.823 2.9993,-4.7064 5.65018,-4.7064 3.33151,0 4.13492,-1.0879 3.26371,-4.4194 -0.75996,-2.9061 -0.0678,-4.4194 2.02134,-4.4194 1.74737,0 3.7494,-1.4916 4.44896,-3.3146 0.69955,-1.823 3.65145,-3.3146 6.55977,-3.3146 2.90832,0 5.28786,-1.08 5.28786,-2.4 0,-4.031 13.97698,-17.4873 18.16391,-17.4873 2.16324,0 3.93318,-1.4916 3.93318,-3.3146 0,-1.823 1.24985,-3.3146 2.77742,-3.3146 1.5276,0 5.97154,-3.4803 9.87543,-7.734 3.9039,-4.2536 8.15429,-7.7339 9.44532,-7.7339 1.29104,0 2.8956,-1.4288 3.56569,-3.1751 0.67012,-1.7462 2.61926,-2.6374 4.33145,-1.9804 1.71219,0.657 3.70093,-0.3374 4.41942,-2.2097 0.71849,-1.8724 2.61503,-2.9021 4.21453,-2.2884 1.5995,0.6138 3.56462,0.054 4.36696,-1.2443 0.84886,-1.3735 9.28628,-2.3604 20.18023,-2.3604 13.94112,0 19.02232,-0.784 19.89969,-3.0704 0.64959,-1.6927 2.98514,-2.5978 5.20552,-2.0172 2.21503,0.5793 4.69543,-0.028 5.51198,-1.349 0.81656,-1.3212 4.82568,-2.4022 8.90915,-2.4022 4.08348,0 10.23959,-1.3596 13.68026,-3.0214 21.59971,-10.4319 26.65466,-12.4582 31.06519,-12.4527 4.59174,0.01 26.6979,-10.6823 33.43111,-16.1635 3.76006,-3.0609 10.95819,-7.2644 17.49864,-10.2188 2.76565,-1.2493 5.63577,-3.8541 6.37806,-5.7885 0.74228,-1.9343 3.75973,-4.4333 6.70547,-5.5533 3.17349,-1.2065 4.72358,-3.0593 3.80416,-4.547 -1.07824,-1.7446 0.59649,-2.1954 5.48859,-1.4774 3.87216,0.5683 7.55239,0.2047 8.17829,-0.808 0.62587,-1.0127 3.50652,-1.8413 6.40141,-1.8413 2.8949,0 5.878,-0.9943 6.62913,-2.2097 1.77815,-2.8771 22.52867,-2.8771 24.30677,0 1.8723,3.0295 190.3724,3.0295 192.2447,0 0.7511,-1.2153 9.2032,-2.2097 18.7825,-2.2097 9.5793,0 18.0314,-0.9943 18.7825,-2.2097 0.8861,-1.4337 48.2683,-2.2097 134.9227,-2.2097 87.5648,0 133.5569,-0.7609 133.5569,-2.2097 0,-1.3974 15.7928,-2.2097 42.9589,-2.2097 26.2557,0 43.49,0.8592 44.3246,2.2097 0.7512,1.2153 6.9463,2.2097 13.7671,2.2097 8.3254,0 13.7002,1.1753 16.3528,3.5759 2.1732,1.9667 8.4504,4.083 13.9493,4.7028 5.4989,0.6198 11.13,2.4909 12.5136,4.1581 1.5024,1.8103 6.8568,3.0312 13.2936,3.0312 5.9279,0 10.778,0.9943 10.778,2.2097 0,1.2153 1.4566,2.2097 3.2368,2.2097 1.7803,0 4.3289,2.0406 5.6637,4.5347 1.3348,2.4941 4.1043,4.2665 6.1545,3.9388 2.0501,-0.3278 7.112,1.1119 11.2486,3.1992 6.6789,3.3703 16.128,3.7952 84.3909,3.7952 48.863,0 77.3675,0.8051 78.2356,2.2098 0.7511,1.2153 3.7342,2.2097 6.6291,2.2097 2.8949,0 5.878,0.9943 6.6291,2.2097 0.7718,1.2487 11.6395,2.2156 24.9897,2.2233 16.6355,0.01 25.4963,0.9901 29.9532,3.3146 4.3617,2.2747 13.0795,3.3009 28.0434,3.3009 12.0925,0 22.3192,0.9791 23.0798,2.2097 0.8428,1.3637 19.7961,2.2097 49.5063,2.2097 45.9524,0 48.3298,-0.2089 52.3005,-4.5964 2.9375,-3.246 6.0465,-4.3195 10.5817,-3.6539 4.8678,0.7144 6.6803,-0.045 7.4891,-3.1375 0.5868,-2.2441 2.9397,-4.0801 5.2286,-4.0801 2.2889,0 4.1617,-0.9944 4.1617,-2.2097 0,-1.2726 6.8833,-2.2098 16.2304,-2.2098 13.5219,0 16.91,0.7511 20.3035,4.5009 3.9034,4.3132 6.0134,4.4642 50.6134,3.6228 61.3038,-1.1567 67.7164,-2.5563 118.3556,-25.8333 14.999,-6.8944 29.6473,-12.0804 35.7486,-12.656 6.3935,-0.6033 11.7928,-2.584 14.1532,-5.1922 3.199,-3.5349 6.888,-4.2091 22.8087,-4.1685 l 18.9924,0.048 12.909,12.1051 c 7.1,6.6577 13.696,12.105 14.6578,12.105 0.9619,0 2.3033,2.1201 2.9809,4.7113 0.8848,3.3836 2.4605,4.39 5.5914,3.5712 3.0067,-0.7862 4.6972,0.1517 5.4479,3.0227 0.8,3.0591 3.1032,4.1627 8.687,4.1627 4.792,0 9.0755,1.6323 11.5979,4.4195 3.1216,3.4493 6.8058,4.4194 16.7849,4.4194 7.0319,0 13.4249,1.0348 14.2066,2.2996 0.7816,1.2647 3.2425,1.7215 5.4687,1.0149 2.2261,-0.7065 4.687,-0.2498 5.4687,1.015 0.7817,1.2648 3.6437,2.2996 6.3601,2.2996 4.987,0 30.1556,21.26 30.1556,25.4725 0,1.2049 1.9888,3.4326 4.4195,4.9506 2.4306,1.518 4.4409,3.9945 4.4671,5.5034 0.026,1.5089 3.4496,5.6674 7.6075,9.2411 7.4306,6.3867 7.9464,6.4873 30.2064,5.8895 23.7167,-0.6369 36.6955,-4.0437 45.4868,-11.9398 2.697,-2.4224 4.3785,-5.2542 3.7365,-6.2929 -0.6419,-1.0386 0.707,-1.8885 2.9975,-1.8885 2.2906,0 6.5001,-2.4859 9.3545,-5.5242 2.8544,-3.0384 6.3346,-5.5243 7.7339,-5.5243 1.3993,0 4.8796,-2.4859 7.734,-5.5243 2.8544,-3.0383 7.0052,-5.5243 9.224,-5.5243 2.2189,0 4.0343,-0.9943 4.0343,-2.2097 0,-1.2153 1.1333,-2.2097 2.5185,-2.2097 1.3852,0 3.791,-1.7401 5.3462,-3.867 1.5551,-2.1268 3.6535,-3.9274 4.663,-4.0012 1.0094,-0.074 5.6857,-1.814 10.3916,-3.867 4.8367,-2.11 14.2027,-3.7327 21.5447,-3.7327 7.1857,0 12.9884,-0.9872 12.9884,-2.2097 0,-1.2154 1.4803,-2.2098 3.2894,-2.2098 1.8091,0 5.1205,-1.568 7.359,-3.4845 6.0568,-5.1861 79.7364,-5.1861 82.6387,0 1.0725,1.9165 2.8498,3.4845 3.9494,3.4845 1.0997,0 4.2819,2.2989 7.0717,5.1085 4.6846,4.7179 7.0183,8.7545 13.6545,23.6178 1.3565,3.0383 3.6385,6.7672 5.0708,8.2864 3.1345,3.3245 30.7499,3.7903 32.751,0.5524 0.751,-1.2154 3.6864,-2.2097 6.523,-2.2097 2.8366,0 5.7298,-1.4916 6.4294,-3.3146 0.7864,-2.0493 4.1474,-3.3145 8.8048,-3.3145 7.3166,0 13.9397,-4.4461 11.001,-7.3849 -0.7997,-0.7997 3.435,-1.4224 9.4103,-1.3837 9.7457,0.063 18.5985,3.5615 18.5985,7.3498 0,3.7514 15.4741,17.3571 18.4446,16.2173 1.8323,-0.7031 3.8579,0.2272 4.5774,2.1022 1.0154,2.6459 4.3501,3.2054 15.6317,2.6226 10.5571,-0.5453 14.6427,0.049 15.4837,2.2506 0.6284,1.6453 2.6258,2.4222 4.4384,1.7266 2.9113,-1.1171 3.296,33.0422 3.296,292.6825 v 293.9472 l -4.9111,-3.4399 c -2.7011,-1.8919 -6.5568,-3.4399 -8.5683,-3.4399 -2.0113,0 -4.895,-1.4915 -6.408,-3.3145 -2.3246,-2.801 -12.2767,-3.3146 -64.2216,-3.3146 -41.1576,0 -61.9523,0.7789 -62.9277,2.357 -0.8304,1.3435 -7.0553,2.1285 -14.4775,1.8255 -7.1617,-0.2922 -13.6912,0.1386 -14.5101,0.9576 -0.8189,0.819 -7.728,1.489 -15.3533,1.489 -7.6254,0 -14.4791,0.9944 -15.2302,2.2097 -0.751,1.2154 -4.2901,2.2097 -7.8643,2.2097 -4.1112,0 -6.4988,1.1417 -6.4988,3.1077 0,1.9173 -1.5404,2.7049 -4.0214,2.0561 -2.2117,-0.5784 -5.3166,0.5091 -6.8996,2.4166 -1.583,1.9075 -5.2737,3.4682 -8.2013,3.4682 -3.0364,0 -5.9548,1.6612 -6.7936,3.867 -1.6981,4.4658 -11.8246,12.9802 -14.4298,12.1329 -0.969,-0.3151 -2.3377,0.9278 -3.0415,2.7621 -0.704,1.8343 -2.4439,3.3351 -3.8667,3.3351 -3.9289,0 -10.6672,8.8494 -9.3506,12.2802 0.7926,2.066 -1.2598,3.4793 -6.4727,4.4572 -4.1985,0.7877 -7.6334,2.3158 -7.6334,3.3959 0,3.4124 -14.825,2.1254 -21.9237,-1.9032 -3.7477,-2.1269 -7.3756,-5.6072 -8.062,-7.734 -0.6865,-2.1269 -3.1833,-3.867 -5.5486,-3.867 -2.3653,0 -6.2757,-0.9944 -8.6899,-2.2097 -2.4142,-1.2153 -6.3647,-3.2041 -8.7789,-4.4194 -6.7371,-3.3916 -38.1103,-2.6922 -47.0647,1.0492 -4.2898,1.7924 -9.7748,5.7699 -12.1888,8.8388 -2.4141,3.069 -5.0859,5.5799 -5.9375,5.5799 -0.8515,0 -5.9824,4.2261 -11.402,9.3913 -5.4196,5.1652 -10.7117,9.3913 -11.7602,9.3913 -1.0486,0 -2.6523,0.7457 -3.5638,1.6572 -0.9115,0.9115 -3.4803,1.6573 -5.7084,1.6573 -2.2281,0 -4.0512,0.9944 -4.0512,2.2097 0,1.3311 -9.1077,2.2097 -22.9039,2.2097 -18.9806,0 -23.8066,-0.7049 -28.1738,-4.1154 z"
       id="path4104"
       inkscape:connector-curvature="0"
       transform="scale(0.26458333)" />
  </g>
</svg>
