<?xml version="1.0" encoding="UTF-8" standalone="no"?>
<svg
   xmlns:dc="http://purl.org/dc/elements/1.1/"
   xmlns:cc="http://creativecommons.org/ns#"
   xmlns:rdf="http://www.w3.org/1999/02/22-rdf-syntax-ns#"
   xmlns:svg="http://www.w3.org/2000/svg"
   xmlns="http://www.w3.org/2000/svg"
   xmlns:sodipodi="http://sodipodi.sourceforge.net/DTD/sodipodi-0.dtd"
   xmlns:inkscape="http://www.inkscape.org/namespaces/inkscape"
   width="2715px"
   height="740px"
   viewBox="0 0 2715 740"
   version="1.1"
   id="svg3737"
   sodipodi:docname="level1_1.svg"
   inkscape:version="0.92.4 (5da689c313, 2019-01-14)">
  <metadata
     id="metadata3741">
    <rdf:RDF>
      <cc:Work
         rdf:about="">
        <dc:format>image/svg+xml</dc:format>
        <dc:type
           rdf:resource="http://purl.org/dc/dcmitype/StillImage" />
      </cc:Work>
    </rdf:RDF>
  </metadata>
  <sodipodi:namedview
     pagecolor="#ffffff"
     bordercolor="#666666"
     borderopacity="1"
     objecttolerance="10"
     gridtolerance="10"
     guidetolerance="10"
     inkscape:pageopacity="0"
     inkscape:pageshadow="2"
     inkscape:window-width="1920"
     inkscape:window-height="1001"
     id="namedview3739"
     showgrid="false"
     inkscape:zoom="0.64825046"
     inkscape:cx="1357.5"
     inkscape:cy="431.70455"
     inkscape:window-x="-9"
     inkscape:window-y="-9"
     inkscape:window-maximized="1"
     inkscape:current-layer="svg3737" />
  <!-- Generator: Sketch 46.2 (44496) - http://www.bohemiancoding.com/sketch -->
  <title
     id="title3728">Path</title>
  <desc
     id="desc3730">Created with Sketch.</desc>
  <defs
     id="defs3732" />
  <g
     id="Page-1"
     stroke="none"
     stroke-width="1"
     fill="none"
     fill-rule="evenodd">
    <g
       id="Artboard"
       transform="translate(0.000000, -139.000000)"
       stroke="#979797">
      <path
         d="M36.415364,299.381073 C83.9276572,255.226217 291.558129,255.226217 659.30678,299.381073 L905.157587,460.416871 L1019.0782,319.753789 L1418.91093,422.808758 L1818.78369,488.732167 L1920.89802,299.381073 L2296.29776,261.256692 L2253.41494,139.874221 L2456.46297,172.279945 L2524.57922,261.256692 L2681.28259,314.303194 L2714,516.05464 L2594.35634,632.175152 L1950.77392,878.256119 L36.415364,878.256119 C-11.0969292,536.494278 -11.0969292,343.535929 36.415364,299.381073 Z"
         id="Path" />
    </g>
  </g>
  <path
     style="fill:#280b0b;stroke-width:1.54261363"
     d="M 37.021478,736.91065 C 37.02079,736.27433 34.627159,717.70511 31.702298,695.64574 11.727528,544.99553 2.548173,433.51024 2.4890699,340.8446 2.4540294,285.90665 4.0011074,261.37939 9.494788,229.77642 c 6.08094,-34.98125 15.216818,-56.66896 29.147796,-69.1941 37.575528,-33.78364 174.037236,-40.77244 409.486676,-20.97163 54.24228,4.56166 164.85883,15.97587 203.46931,20.99541 6.6956,0.87045 21.38352,10.03569 128.80823,80.3761 66.68798,43.66648 122.04532,80.03175 123.0163,80.81171 1.2232,0.98257 19.22097,-20.15608 58.59826,-68.82454 31.25807,-38.63346 57.61514,-70.24267 58.57124,-70.24267 0.9561,0 90.8614,22.9731 199.7895,51.05134 l 198.0511,51.05131 130.3509,21.50037 c 247.9828,40.90281 270.4465,44.56678 270.8016,44.16955 0.1964,-0.21944 22.7465,-42.04955 50.1117,-92.9558 27.365,-50.90625 50.5232,-93.38593 51.4625,-94.39929 1.0982,-1.18465 68.4874,-8.61989 188.7497,-20.82528 111.3908,-11.30501 187.0261,-19.60675 187.0029,-20.52543 -0.022,-0.84844 -9.3669,-27.889326 -20.7677,-60.090858 -11.4009,-32.201533 -20.5566,-58.7204087 -20.3462,-58.9308354 0.5153,-0.5152199 200.1398,31.4152074 200.672,32.0979714 0.2305,0.295545 15.5088,20.303614 33.9522,44.462378 l 33.5333,43.925024 78.167,26.42141 78.1672,26.42142 15.7397,97.02714 c 8.6569,53.36493 15.9411,98.5203 16.1873,100.34529 0.3489,2.58755 -12.6269,16.0204 -58.9325,61.0081 l -59.38,57.68995 -321.6349,122.96913 -321.635,122.96912 -956.80606,-0.0205 C 467.58548,738.07685 37.022164,737.54698 37.021478,736.91065 Z"
     id="path3743"
     inkscape:connector-curvature="0" />
</svg>
