<?xml version="1.0" encoding="UTF-8"?>
<svg width="847px" height="296px" viewBox="0 0 847 296" version="1.1" xmlns="http://www.w3.org/2000/svg" xmlns:xlink="http://www.w3.org/1999/xlink">
    <!-- Generator: Sketch 46.2 (44496) - http://www.bohemiancoding.com/sketch -->
    <title>Path 2</title>
    <desc>Created with Sketch.</desc>
    <defs></defs>
    <g id="Page-1" stroke="none" stroke-width="1" fill="none" fill-rule="evenodd">
        <g id="Artboard" transform="translate(-779.000000, -136.000000)" stroke="#979797">
            <path d="M1162.05974,342.797345 C1275.18148,300.513552 1268.95576,201.941233 1327.26488,185.300277 C1385.574,168.65932 1441.74897,218.049607 1506.81465,244.407044 C1571.88033,270.764482 1597.47074,264.121947 1617.25098,302.770657 C1637.03122,341.419366 1617.36345,385.796655 1579.17723,385.796655 C1540.99102,385.796655 1509.757,332.11936 1470.41732,302.770657 C1431.07765,273.421953 1419.56771,248.0057 1389.65536,244.407044 C1359.743,240.808389 1359.60314,257.809772 1327.26488,285.548466 C1294.92662,313.28716 1294.55714,321.302351 1274.95021,342.797345 C1255.34327,364.29234 1274.67313,364.180849 1235.82222,385.796655 C1196.97131,407.41246 1164.04487,416.614495 1130.2596,423.300072 C1096.47434,429.985648 1120.03652,435.93191 1046.30034,423.300072 C972.564167,410.668233 954.870116,403.691262 911.339889,385.796655 C867.809662,367.902047 873.266058,362.196969 850.470288,342.797345 C827.674518,323.397721 832.408018,331.534992 813.779157,302.770657 C795.150297,274.006322 766.556965,298.712488 786.749045,244.407044 C806.941125,190.101601 855.834094,140.907713 875.49561,136.787792 C895.157125,132.667872 860.288555,186.508255 875.49561,225.81088 C890.702665,265.113505 923.222899,293.538265 939.718051,302.770657 C956.213202,312.003049 932.898467,288.351122 1012.99662,302.770657 C1093.09477,317.190192 1048.93799,385.081138 1162.05974,342.797345 Z" id="Path-2"></path>
        </g>
    </g>
</svg>